<?xml version="1.0" encoding="UTF-8"?>
<svg id="Layer_1" data-name="Layer 1" xmlns="http://www.w3.org/2000/svg" xmlns:xlink="http://www.w3.org/1999/xlink" viewBox="0 0 69.51 79.12">
  <defs>
    <style>
      .cls-1 {
        fill: none;
      }

      .cls-2 {
        fill: url(#linear-gradient);
      }

      .cls-3 {
        clip-path: url(#clippath);
      }
    </style>
    <clipPath id="clippath">
      <path class="cls-1" d="M1.39,12.74c-4.76,9.64,4.04,25.95,6.26,20.42,3.05-7.6,9.93-3.01,8.6,3.71-.73,3.7-2.88,9.12-1.82,11.78.17.43,2.84,3.53,6.05,6.54,1.83,1.71,5.42,4.29,8.78,11,4.18,8.35.18,11.75.18,11.75,0,0,.9,1.36,4.26-.58,1.42-.82,2.78-2.11,4.39-4.34,1.61-2.24,2.07-7.22.38-11.51-2.45-6.2-8.97-12.5-12.28-15.69-5.78-5.58-4.19-8.79-4.02-10.73.34-3.89-1.36-5.83-6.55-10.42-.95-.84-7.35-7.59-3.97-13.17,1.34-2.22,3.41-2.84,3.41-2.84-1.42-.51-2.85-.73-4.23-.73-4.32,0-8.14,2.21-9.44,4.83M29.02-.25s1.33,1.37.86,2.02c-.47.66-2.78.5-4.48.28s-2.86.2-2.68,1.37c.18,1.17,1.82,1.39,3.78,3.39,1.95,2-.41,2.23-2.52,2.33-2.11.1-4.68.06-6.78,2.12-1.51,1.48-3.56,3.99.03,10.1,5.87,10,12.95,9.64,15.26,15.92.41,1.12.39,2.63-.96,2.7-1,.05-3.18-2.4-3.6-4.79-1-.04-3.42,4.04-.83,6.94,3.43,3.84,9.06,8.06,12.47,13.64,4.57,7.48,2.89,11.52,2.89,11.52,1.53-1.42,2.35-2.66,3.1-6.81.46-2.55.69-8.65-3.32-11.7-2.67-2.03-2.51-6.04-2.53-8.79-.04-7.36-4.97-8.2-8.62-10-3.14-1.55-7.67-5.91-6.61-10.69.3-1.34.8-2.19,1.47-2.71,1.07-.83,2.23-.76,8.24-.51,1.92.08,3.59.13,5.03-.77.38-.23,1.2-.76,1.53-1.76.03-.08.25-.77.09-1.49-.31-1.38-1.84-2.05-6.14-4.54-1.39-.8-2.15-1.23-2.1-1.85.06-.86,2.12-1.26,1.89-2.27C33.66-.11,29.75-.25,29.11-.25c-.06,0-.09,0-.09,0"/>
    </clipPath>
    <linearGradient id="linear-gradient" x1="-175.56" y1="207.78" x2="-174.56" y2="207.78" gradientTransform="translate(-15167.54 12838.83) rotate(90) scale(73.1 -73.1)" gradientUnits="userSpaceOnUse">
      <stop offset="0" stop-color="#382d7a"/>
      <stop offset=".12" stop-color="#36337f"/>
      <stop offset=".3" stop-color="#324590"/>
      <stop offset=".5" stop-color="#2c63ab"/>
      <stop offset=".61" stop-color="#2878be"/>
      <stop offset="1" stop-color="#81cdc3"/>
      <stop offset="1" stop-color="#81cdc3"/>
    </linearGradient>
  </defs>
  <g>
    <path d="M52,16.39c-.18-.18-.41-.27-.65-.27s-.46.09-.64.27l-1.46,1.45c-.37.37-.37.98,0,1.35l1.45,1.44s.01.03,0,.05l-7.06,7.05s-.02,0-.04,0l-5.94-3.14c-.35-.18-.72-.31-1.11-.37-.2-.04-.41-.05-.61-.05-.18,0-.36.01-.53.03l-6.09.88c.93.99,2.04,1.81,3.05,2.31.49.24,1.01.47,1.56.71,3.44,1.48,8.62,3.72,8.67,11.88v.5c.01,2.21.01,4.95,1.38,5.99,6.01,4.56,4.6,13.51,4.42,14.52-.85,4.79-2.01,6.59-3.97,8.42l-2.62,2.44c-.33,1.1-.79,2.05-1.35,2.83-.27.37-.53.73-.8,1.06l3.12-.54c1.33-.23,2.56-.87,3.5-1.84l8.75-9.01c.95-.97,1.56-2.21,1.75-3.55l1.92-13.3c.05-.39.05-.77-.01-1.15-.07-.39-.2-.76-.38-1.11l-3.13-5.94s-.01-.03,0-.04l7.06-7.05s.03-.02.04,0l1.47,1.46c.18.18.41.27.65.27s.47-.09.65-.27l1.45-1.45c.37-.37.37-.97,0-1.34l-14.5-14.5Z"/>
    <path d="M19.43,58.13c-.36-.32-.66-.58-.92-.83-1.87-1.75-6.17-6.09-6.76-7.58-1.12-2.81-.11-6.57.87-10.19.31-1.18.61-2.28.8-3.22.22-1.14.09-2.27-.34-3.11l-3.53,3.43c-.97.95-1.62,2.17-1.85,3.51l-2.29,13.24c-.06.32-.15.65-.01.98.13.33,8.52,13.71,8.52,13.71.12.19.26.35.42.5.15.16.32.31.5.42,0,0,8.17,5.13,11.91,7.43l.8-.67s2.11-2.29-.88-8.27c-2.63-5.28-5.41-7.73-7.24-9.35Z"/>
    <path d="M68.69,21.32l-8.33-8.33c-.41-.41-1.08-.41-1.49,0l-2.15,3.14c-.41.41-.41,1.08,0,1.49l7.33,7.34c.41.41,1.08.41,1.49,0l3.14-2.15c.41-.41.41-1.08,0-1.49Z"/>
  </g>
  <g class="cls-3">
    <rect class="cls-2" x="-20.31" y="-7.35" width="83.48" height="93.72" transform="translate(-17.29 16.68) rotate(-31)"/>
  </g>
</svg>