<?xml version="1.0" standalone="no"?>
<!DOCTYPE svg PUBLIC "-//W3C//DTD SVG 20010904//EN"
 "http://www.w3.org/TR/2001/REC-SVG-20010904/DTD/svg10.dtd">
<svg version="1.0" xmlns="http://www.w3.org/2000/svg"
 width="1024pt" height="1024pt" viewBox="0 0 1024 1024"
 preserveAspectRatio="xMidYMid meet">

<g transform="translate(0,1024) scale(0.1,-0.1)"
fill="currentColor" stroke="none">
<path d="M4850 8365 c-684 -83 -1354 -397 -1844 -865 -177 -169 -411 -456
-531 -653 -252 -409 -416 -900 -466 -1392 -17 -168 -15 -575 5 -730 72 -570
262 -1068 576 -1505 541 -753 1309 -1232 2182 -1360 356 -53 781 -28 1138 64
721 186 1351 611 1809 1219 344 457 534 926 628 1552 22 149 25 673 5 825 -78
584 -300 1135 -637 1580 -496 655 -1141 1059 -1965 1231 -227 47 -657 64 -900
34z m607 -470 c448 -59 860 -227 1228 -500 605 -448 976 -1135 930 -1720 l-8
-100 -13 65 c-28 146 -115 345 -208 474 -49 69 -124 156 -134 156 -4 0 -6 -62
-5 -138 l1 -137 46 -98 c65 -136 103 -236 133 -342 22 -81 26 -118 34 -362 l8
-273 51 -66 c88 -115 122 -208 123 -334 1 -98 -16 -166 -65 -270 -33 -69 -56
-100 -127 -170 -92 -92 -159 -133 -276 -171 -63 -20 -97 -23 -350 -29 -298 -7
-301 -7 -414 -65 -72 -36 -172 -140 -211 -218 -57 -117 -60 -139 -60 -524 0
-194 3 -353 6 -353 23 0 150 85 206 138 81 76 120 150 143 267 22 110 74 213
142 281 30 31 56 54 57 52 1 -2 -1 -106 -4 -233 -6 -202 -10 -238 -29 -292
-120 -334 -638 -629 -1229 -698 -403 -47 -802 18 -1162 191 -312 151 -487 308
-567 510 -26 67 -27 76 -30 299 l-3 230 56 -60 c71 -76 110 -153 141 -279 14
-55 33 -117 44 -138 34 -66 141 -169 228 -220 80 -47 81 -47 87 -24 3 13 4
178 2 367 -4 314 -6 349 -25 405 -38 113 -121 215 -235 287 -110 70 -115 71
-428 77 -274 6 -288 8 -366 33 -199 66 -369 237 -435 439 -32 99 -33 226 -1
319 26 76 80 170 122 214 l30 30 6 230 c3 127 12 271 20 320 20 120 72 273
138 403 l54 107 4 143 c3 78 1 142 -3 142 -14 0 -120 -125 -167 -195 -74 -112
-159 -328 -181 -459 l-9 -51 -3 75 c-14 371 56 671 232 983 374 664 1047 1132
1819 1266 155 27 160 28 362 29 111 1 221 -4 295 -13z"/>
<path d="M3865 6051 c-298 -65 -524 -263 -621 -549 -73 -214 -60 -453 36 -647
104 -212 293 -373 505 -430 94 -26 285 -31 384 -11 403 82 690 452 668 861
-20 360 -242 647 -582 755 -55 17 -100 23 -210 26 -77 2 -158 -1 -180 -5z"/>
<path d="M6160 6040 c-96 -25 -260 -106 -328 -163 -125 -104 -226 -263 -274
-432 -29 -107 -32 -315 -4 -420 57 -217 227 -436 413 -533 132 -69 213 -87
388 -86 141 0 156 2 242 31 269 90 446 272 539 553 26 78 28 98 28 235 1 172
-10 224 -79 370 -79 171 -214 305 -390 391 -56 27 -122 50 -169 59 -109 21
-273 19 -366 -5z"/>
<path d="M5143 4868 c-74 -16 -104 -56 -151 -198 -213 -652 -262 -806 -262
-829 1 -46 37 -108 81 -140 102 -75 240 -12 270 123 14 64 41 94 91 102 46 8
94 -31 108 -89 17 -69 37 -103 74 -132 42 -32 108 -43 159 -26 45 15 102 78
118 130 11 37 9 50 -29 163 -44 132 -226 700 -244 758 -32 110 -113 162 -215
138z"/>
<path d="M4480 2860 l0 -290 125 0 124 0 3 290 3 290 -127 0 -128 0 0 -290z"/>
<path d="M4990 2860 l0 -290 190 0 190 0 0 274 c0 151 3 281 6 290 5 14 -15
16 -190 16 l-196 0 0 -290z"/>
<path d="M5630 2860 l0 -290 125 0 125 0 0 290 0 290 -125 0 -125 0 0 -290z"/>
</g>
</svg>
