<?xml version="1.0" encoding="utf-8"?>
<svg xmlns="http://www.w3.org/2000/svg" viewBox="232.667 160.851 51.574 53.901">
  <path d="M 259.848 174.12 L 270.879 169.409 L 281.879 180.501 L 281.879 194.069 L 259.848 194.069" fill="currentColor" style="stroke-width: 0.1;"/>
  <path d="M 235.029 180.721 L 246.059 169.41 L 257.059 173.901 L 257.059 194.07 L 235.029 194.07" fill="currentColor" style="stroke-width: 0.1;"/>
  <path d="M 252.234 214.252 L 238.82 200.838 L 258.452 181.205 L 278.086 200.838 L 264.672 214.252" fill="var(--background)" style="stroke-width: 0.1;"/>
  <path d="M 258.452 180.498 L 257.745 181.205 L 238.819 200.131 L 238.112 200.838 L 238.819 201.545 L 251.733 214.459 L 252.025 214.752 L 252.44 214.752 L 264.465 214.752 L 264.879 214.752 L 265.172 214.459 L 278.085 201.546 L 278.793 200.838 L 278.085 200.131 L 259.159 181.205 L 258.452 180.498 Z M 258.452 181.912 L 277.378 200.838 L 264.465 213.752 L 252.44 213.752 L 239.526 200.838" fill="currentColor" style="stroke-width: 0.1;"/>
  <path d="M 235.127 208.266 L 235.127 187.084 L 238.203 183.57 L 238.203 181.547 C 238.203 173.164 243.492 165.597 251.364 162.717 L 251.763 162.572 C 253.976 161.762 256.294 161.351 258.651 161.351 C 260.898 161.351 263.112 161.725 265.234 162.463 C 273.289 165.264 278.701 172.874 278.701 181.402 L 278.701 183.778 L 281.777 187.234 L 281.777 208.266" fill="var(--background)" style="stroke-width: 0.1;"/>
  <path d="M 258.651 160.851 C 256.235 160.851 253.859 161.272 251.59 162.102 L 251.193 162.247 C 243.124 165.199 237.703 172.955 237.703 181.547 L 237.703 183.382 L 234.875 186.613 L 234.628 186.896 L 234.628 187.272 L 234.628 207.766 L 234.628 208.766 L 235.628 208.766 L 281.277 208.766 L 282.277 208.766 L 282.277 207.766 L 282.277 187.424 L 282.277 187.043 L 282.025 186.759 L 279.202 183.588 L 279.202 181.402 C 279.202 172.661 273.655 164.861 265.399 161.991 C 263.224 161.234 260.954 160.851 258.651 160.851 M 258.651 161.851 C 260.821 161.851 262.991 162.212 265.071 162.935 C 272.932 165.668 278.202 173.079 278.202 181.402 L 278.202 183.968 L 281.277 187.424 L 281.277 207.766 L 235.628 207.766 L 235.628 187.272 L 238.703 183.758 L 238.703 181.547 C 238.703 173.34 243.829 166.006 251.537 163.186 L 251.934 163.041 C 254.102 162.248 256.376 161.851 258.651 161.851" fill="currentColor" style="stroke-width: 0.1;"/>
  <path stroke-width="5" stroke-linecap="butt" stroke-miterlimit="10" stroke-linejoin="miter" fill="none" stroke="currentColor" d="M 258.65 164.763 C 260.515 164.763 262.354 165.074 264.115 165.686 C 270.798 168.01 275.29 174.326 275.29 181.402 L 275.29 185.076 L 278.365 188.532 L 278.365 204.854 L 238.54 204.854 L 238.54 188.366 L 241.615 184.852 L 241.615 181.547 C 241.615 174.59 246.004 168.311 252.538 165.921 L 252.936 165.775 C 254.772 165.104 256.693 164.763 258.649 164.763 L 258.65 164.763 Z" style="stroke-width: 0.5;"/>
  <path d="M 234.277 200.85 L 282.631 200.85 C 283.259 201.479 283.612 201.831 284.241 202.461 L 284.241 208.876 C 283.612 209.504 283.259 209.857 282.631 210.486 L 234.277 210.486 C 233.648 209.857 233.296 209.504 232.667 208.876 L 232.667 202.461 C 233.296 201.831 233.648 201.479 234.277 200.85" fill="currentColor" style="stroke-width: 0.1;"/>
</svg>