<?xml version="1.0" encoding="utf-8"?>
<svg class="size-16 text-muted-foreground" xmlns="http://www.w3.org/2000/svg" viewBox="-23.678 0.576 51.574 55.143">
  <path d="M -16.975 19.329 L 21.193 19.329 C 21.821 19.958 22.174 20.31 22.803 20.939 L 22.803 32.852 C 22.174 33.481 21.821 33.833 21.193 34.462 L -16.975 34.462 C -17.604 33.833 -17.956 33.481 -18.585 32.852 L -18.585 20.939 C -17.956 20.31 -17.604 19.958 -16.975 19.329" fill="currentColor" style="stroke-width: 0.1;"/>
  <path d="M 2.109 55.219 C -11.978 55.219 -19.533 38.466 -19.607 38.296 L -20.092 37.204 L -19.096 36.642 C -17.998 36.024 -15.998 33.304 -15.459 27.036 C -14.989 21.544 -18.793 17.494 -18.831 17.453 L -19.189 17.084 L -19.189 8.09 L -18.018 8.09 C -7.998 8.09 1.341 1.809 1.431 1.746 L 2.109 1.212 L 2.801 1.757 C 2.877 1.809 12.224 8.09 22.236 8.09 L 23.407 8.09 L 23.407 17.082 L 23.05 17.453 C 23.012 17.493 19.209 21.56 19.677 27.036 C 20.216 33.304 22.216 36.024 23.314 36.642 L 24.31 37.204 L 23.825 38.297 C 23.751 38.466 16.196 55.219 2.109 55.219" fill="var(--background)" style="stroke-width: 0.1;"/>
  <path d="M 2.11 0.576 L 1.491 1.062 L 1.107 1.364 C 1.054 1.399 -8.278 7.59 -18.017 7.59 L -18.689 7.59 L -19.689 7.59 L -19.689 8.59 L -19.689 16.882 L -19.689 17.285 L -19.409 17.576 L -19.192 17.801 C -19.157 17.838 -15.508 21.744 -15.958 26.994 C -16.48 33.066 -18.399 35.676 -19.341 36.207 L -19.942 36.546 L -20.732 36.992 L -20.364 37.822 L -20.064 38.499 C -19.989 38.669 -12.32 55.719 2.109 55.719 C 16.538 55.719 24.207 38.669 24.283 38.497 L 24.582 37.822 L 24.95 36.992 L 24.159 36.546 L 23.559 36.207 C 22.617 35.676 20.697 33.066 20.176 26.994 C 19.728 21.761 23.377 17.836 23.414 17.797 L 23.628 17.574 L 23.907 17.283 L 23.907 16.881 L 23.907 8.59 L 23.907 7.59 L 22.907 7.59 L 22.235 7.59 C 12.516 7.59 3.162 1.398 3.072 1.336 L 2.728 1.063 L 2.11 0.576 Z M 2.109 1.848 L 2.492 2.149 C 2.588 2.224 12.113 8.59 22.235 8.59 L 22.907 8.59 L 22.907 16.881 L 22.69 17.107 C 22.65 17.148 18.688 21.342 19.18 27.079 C 19.699 33.133 21.599 36.249 23.068 37.078 L 23.668 37.417 L 23.368 38.094 C 23.295 38.261 15.842 54.719 2.109 54.719 C -11.624 54.719 -19.077 38.261 -19.15 38.094 L -19.45 37.417 L -18.85 37.078 C -17.381 36.249 -15.482 33.133 -14.962 27.079 C -14.468 21.32 -18.432 17.149 -18.472 17.108 L -18.689 16.882 L -18.689 8.59 L -18.017 8.59 C -7.884 8.59 1.631 2.224 1.725 2.149" fill="currentColor" style="stroke-width: 0.1;"/>
  <path stroke-width="5" stroke-linecap="butt" stroke-miterlimit="10" stroke-linejoin="miter" fill="none" stroke="currentColor" d="M 2.109 51.807 C -7.476 51.807 -13.763 41.973 -15.785 38.283 C -13.81 36.105 -12.484 32.259 -12.06 27.328 C -11.579 21.708 -14.478 17.402 -15.777 15.78 L -15.777 11.413 C -7.851 10.791 -0.803 7.076 2.112 5.333 C 5.036 7.072 12.111 10.786 19.994 11.411 L 19.994 15.78 C 18.696 17.401 15.796 21.708 16.277 27.328 C 16.702 32.258 18.028 36.103 20.003 38.282 C 17.983 41.964 11.688 51.807 2.109 51.807 Z" style="stroke-width: 0.5;"/>
  <path d="M -22.068 41.464 L 26.286 41.464 C 26.914 42.093 27.267 42.446 27.896 43.074 L 27.896 49.491 C 27.267 50.118 26.914 50.471 26.286 51.1 L -22.068 51.1 C -22.697 50.471 -23.049 50.118 -23.678 49.491 L -23.678 43.074 C -23.049 42.446 -22.697 42.093 -22.068 41.464" fill="currentColor" style="stroke-width: 0.1;"/>
</svg>