<?xml version="1.0" encoding="utf-8"?>
<svg xmlns="http://www.w3.org/2000/svg" viewBox="-9.199 3.544 58.968 48.466">
  <path d="M 18.804 38.397 L 8.53 42.785 L -1.716 32.453 L -1.716 19.815 L 18.804 19.815" fill="currentColor" style="stroke-width: 0.1;"/>
  <path d="M 41.922 32.248 L 31.648 42.785 L 21.402 38.602 L 21.402 19.814 L 41.922 19.814" fill="currentColor" style="stroke-width: 0.1;"/>
  <path d="M 1.208 44.919 L 1.208 29.415 L -1.655 26.196 L -1.655 5.601 L 41.865 5.601 L 41.865 26.336 L 38.999 29.608 L 38.999 44.558 L 20.08 51.48" fill="var(--background)" style="stroke-width: 0.1;"/>
  <path d="M 42.365 5.1 L -2.156 5.1 L -2.156 26.385 L -1.903 26.67 L 0.709 29.604 L 0.709 44.563 L 0.709 45.274 L 1.381 45.507 L 19.747 51.893 L 20.084 52.01 L 20.419 51.888 L 38.844 45.147 L 39.5 44.907 L 39.5 44.208 L 39.5 29.795 L 42.117 26.806 L 42.365 26.523 L 42.365 26.147 L 42.365 6.1 L 42.365 5.1 Z M 41.365 6.1 L 41.365 26.147 L 38.5 29.42 L 38.5 44.208 L 20.076 50.948 L 1.709 44.563 L 1.709 29.224 L -1.156 26.006 L -1.156 6.1" fill="currentColor" style="stroke-width: 0.1;"/>
  <path stroke-width="5" stroke-linecap="butt" stroke-miterlimit="10" stroke-linejoin="miter" fill="none" stroke="currentColor" d="M 1.749 9.005 L 1.749 24.899 L 4.614 28.118 L 4.614 42.498 L 17.474 46.969 L 20.158 45.987 L 22.735 46.883 L 35.596 42.178 L 35.596 28.328 L 38.46 25.055 L 38.46 9.005 L 1.749 9.005 Z" style="stroke-width: 0.5;"/>
  <path d="M 48.159 12.519 L -7.588 12.519 C -8.218 11.89 -8.57 11.538 -9.199 10.909 L -9.199 5.154 C -8.57 4.525 -8.218 4.173 -7.588 3.544 L 48.159 3.544 C 48.789 4.173 49.141 4.525 49.769 5.154 L 49.769 10.909 C 49.141 11.538 48.789 11.89 48.159 12.519" fill="currentColor" style="stroke-width: 0.1;"/>
</svg>